<svg width="52" height="52" viewBox="0 0 52 52" fill="none" xmlns="http://www.w3.org/2000/svg">
<path d="M39.2806 10.2051C37.6072 10.2051 36.3521 11.4603 36.3521 13.1339C36.3521 14.8076 37.6072 16.0628 39.2806 16.0628C40.9541 16.0628 42.2092 14.8076 42.2092 13.1339C42.2092 11.4603 40.9541 10.2051 39.2806 10.2051Z" fill="#595E51" stroke="#595E51"/>
<path d="M26.1022 13.9707C19.1991 13.9707 13.7603 19.6192 13.7603 26.3138C13.7603 33.0084 19.4082 38.6569 26.1022 38.6569C32.7961 38.6569 38.4441 33.0084 38.4441 26.3138C38.4441 19.6192 33.0053 13.9707 26.1022 13.9707ZM26.1022 34.2636C21.7093 34.2636 18.1531 30.7071 18.1531 26.3138C18.1531 21.9205 21.7093 18.364 26.1022 18.364C30.4951 18.364 34.0512 21.9205 34.0512 26.3138C34.0512 30.7071 30.4951 34.2636 26.1022 34.2636Z" fill="#595E51" stroke="#595E51"/>
<path d="M36.1431 1H16.2705C7.69392 1 1 7.69456 1 16.0628V35.9372C1 44.3054 7.69392 51 16.0613 51H35.9339C44.3013 51 50.9952 44.3054 50.9952 35.9372V16.0628C51.2044 7.69456 44.5105 1 36.1431 1ZM46.3932 36.1464C46.3932 41.795 41.7911 46.6067 35.9339 46.6067H16.0613C10.4133 46.6067 5.60207 42.0042 5.60207 36.1464V16.272C5.60207 10.6234 10.2041 5.81172 16.0613 5.81172H35.9339C41.5819 5.81172 46.3932 10.4142 46.3932 16.272V36.1464Z" fill="#595E51" stroke="#595E51"/>
</svg>
